
<svg version="1.0" xmlns="http://www.w3.org/2000/svg"
 width="951.000000pt" height="1280.000000pt" viewBox="0 0 951.000000 1280.000000"
 preserveAspectRatio="xMidYMid meet">
<metadata>
Created by potrace 1.15, written by Peter Selinger 2001-2017
</metadata>
<g transform="translate(0.000000,1280.000000) scale(0.100000,-0.100000)"
fill="#509f2f" stroke="none">
<path d="M5550 12794 c-14 -2 -52 -9 -85 -15 -327 -56 -608 -285 -780 -634
-133 -270 -192 -529 -202 -887 -8 -303 24 -633 92 -925 4 -19 -6 -15 -76 32
-87 58 -150 86 -268 116 -99 25 -261 25 -261 -1 0 -4 24 -26 53 -48 113 -85
206 -191 323 -369 63 -95 131 -192 152 -215 47 -53 134 -109 221 -143 l68 -27
47 -103 c57 -123 164 -313 247 -437 33 -50 58 -92 55 -95 -2 -2 -17 2 -33 10
-53 28 -279 106 -393 136 -165 44 -284 67 -545 106 -356 53 -373 56 -488 81
-372 81 -691 281 -906 569 -173 230 -249 429 -258 676 -7 166 11 266 67 385
82 176 183 269 355 326 60 20 89 23 200 22 113 0 141 -4 210 -27 115 -38 197
-90 281 -180 81 -87 141 -194 171 -307 27 -101 22 -255 -11 -355 -91 -283
-334 -446 -596 -401 -218 39 -375 190 -410 396 -48 287 181 568 445 547 112
-8 203 -76 236 -174 11 -33 8 -117 -4 -130 -3 -3 -22 11 -43 31 -42 41 -127
76 -184 76 -57 0 -142 -35 -184 -76 -51 -49 -78 -108 -84 -181 -4 -56 -1 -70
28 -129 49 -100 131 -152 242 -153 115 -2 229 87 258 202 6 23 28 75 48 116
34 68 37 81 37 160 0 76 -3 92 -29 139 -130 234 -437 269 -648 74 -121 -112
-181 -248 -181 -412 -1 -151 40 -261 135 -365 183 -201 484 -247 713 -110 170
102 290 297 315 511 38 337 -171 679 -485 793 -211 76 -434 65 -620 -32 -137
-72 -268 -242 -328 -427 -197 -603 266 -1376 981 -1639 129 -48 305 -86 666
-146 291 -48 578 -110 665 -143 21 -7 13 -10 -45 -16 -129 -13 -323 -73 -410
-127 -30 -18 -33 -19 -62 -2 -49 28 -101 6 -156 -66 -44 -56 -94 -91 -133 -91
-61 1 -134 63 -169 146 -21 47 -30 25 -14 -34 24 -91 102 -172 186 -194 l41
-11 -32 -46 c-49 -68 -92 -160 -117 -248 -28 -100 -30 -275 -4 -373 44 -163
128 -323 232 -446 109 -127 280 -234 439 -274 59 -15 115 -21 215 -21 74 -1
173 -8 219 -15 161 -28 307 -108 374 -206 67 -96 70 -200 12 -326 -30 -65
-117 -159 -170 -183 -44 -20 -110 -26 -100 -8 14 22 6 76 -18 132 -24 53 -28
57 -60 57 -38 0 -108 -45 -128 -81 -16 -30 -13 -92 5 -127 78 -152 378 -77
515 128 87 131 105 294 47 414 -55 112 -195 220 -354 271 l-53 18 53 30 c29
16 87 64 129 106 61 61 85 95 125 175 46 93 49 104 48 175 -1 128 -63 231
-150 247 -56 10 -142 -2 -193 -29 -89 -45 -119 -162 -66 -253 31 -54 65 -78
138 -99 67 -19 70 -30 27 -98 -46 -73 -167 -161 -287 -208 -49 -19 -77 -23
-188 -23 -110 -1 -141 3 -200 22 -350 116 -608 540 -542 890 80 418 609 712
1100 611 56 -11 117 -29 137 -39 19 -10 78 -39 132 -64 207 -98 431 -283 545
-451 112 -166 187 -353 217 -541 21 -132 21 -392 0 -533 -35 -245 -141 -585
-268 -869 -50 -110 -313 -540 -377 -615 -22 -26 -37 -51 -34 -57 3 -5 -43 -92
-103 -192 -195 -329 -385 -672 -625 -1136 l-84 -164 -13 84 c-44 304 -164 545
-364 736 -145 138 -300 228 -469 274 -121 33 -324 32 -417 -1 -106 -39 -171
-80 -250 -160 -119 -120 -180 -263 -180 -421 0 -92 21 -177 62 -250 35 -63 28
-57 -94 85 -254 297 -620 592 -927 749 -227 116 -406 174 -666 215 -71 11
-161 30 -200 41 -93 27 -160 25 -246 -5 -127 -44 -260 -131 -229 -150 17 -11
308 -27 366 -21 28 3 71 13 95 22 112 40 190 37 395 -16 472 -122 955 -465
1381 -981 95 -114 132 -166 112 -154 -7 5 -45 29 -83 53 -308 199 -715 281
-1077 217 -46 -8 -121 -15 -165 -15 -133 0 -206 -38 -290 -152 -39 -54 -72
-124 -62 -134 3 -2 70 16 150 40 142 42 169 56 261 129 47 38 155 57 317 57
216 0 388 -34 580 -116 254 -108 478 -286 653 -522 84 -112 214 -361 291 -554
106 -264 175 -638 191 -1023 l7 -160 -55 -180 c-30 -99 -69 -235 -87 -302 -19
-68 -36 -123 -39 -123 -3 0 -22 22 -41 48 -65 88 -364 378 -499 485 -393 311
-768 504 -1137 583 -165 35 -408 44 -554 19 -482 -80 -829 -436 -916 -939 -24
-134 -15 -349 19 -478 96 -365 364 -634 713 -714 105 -24 283 -24 379 0 322
82 568 342 629 665 20 104 20 165 1 276 -36 202 -135 375 -285 496 -154 124
-340 166 -521 120 -204 -52 -343 -164 -440 -354 -22 -43 -47 -106 -56 -140
-20 -76 -22 -232 -4 -307 56 -229 284 -408 470 -369 147 30 266 142 358 335
36 74 38 86 42 192 2 90 0 123 -14 159 -52 134 -210 205 -346 154 -112 -43
-190 -167 -175 -278 14 -108 70 -177 186 -233 71 -34 72 -35 66 -69 -9 -58
-52 -110 -113 -138 -65 -30 -116 -27 -190 11 -56 28 -142 115 -170 172 -45 88
-59 210 -39 321 55 311 337 529 637 492 215 -26 404 -197 492 -444 145 -408
-90 -847 -519 -966 -106 -30 -265 -30 -379 0 -300 78 -536 320 -616 631 -44
171 -36 402 18 575 85 269 258 477 498 598 337 170 795 130 1265 -109 419
-213 802 -529 1112 -918 60 -75 78 -104 74 -120 -18 -63 -101 -475 -126 -621
-36 -209 -83 -555 -77 -562 3 -2 49 23 104 58 139 87 371 220 559 319 l162 85
17 127 18 128 28 0 c33 0 32 -6 50 295 12 212 28 300 120 667 153 611 233 805
494 1198 301 452 648 730 1021 816 114 27 301 25 414 -4 341 -88 618 -373 711
-730 26 -101 36 -278 20 -377 -46 -284 -223 -531 -466 -651 -124 -61 -197 -78
-330 -78 -134 0 -206 17 -333 80 -74 36 -109 62 -171 122 -134 133 -199 282
-208 478 -16 329 148 590 422 670 88 25 222 24 312 -4 86 -27 206 -104 263
-170 58 -67 115 -187 131 -272 22 -127 -16 -262 -101 -354 -74 -80 -185 -93
-267 -30 -51 39 -56 55 -27 96 15 21 29 60 35 99 19 114 -18 190 -116 235 -65
31 -118 30 -182 -1 -108 -54 -160 -180 -118 -282 26 -61 101 -139 196 -203
149 -99 282 -127 409 -85 107 36 220 182 251 325 16 75 7 222 -19 297 -65 185
-208 329 -400 401 -89 33 -255 42 -354 18 -286 -67 -481 -319 -504 -652 -11
-146 21 -305 86 -434 36 -73 126 -185 193 -240 71 -58 214 -132 302 -156 90
-24 294 -30 379 -10 166 39 303 115 426 236 222 217 320 481 299 800 -27 423
-323 826 -711 970 -308 114 -631 78 -961 -109 -198 -112 -434 -316 -583 -505
-32 -41 -60 -73 -62 -71 -2 1 24 73 58 158 l61 155 59 20 c71 24 138 69 182
122 31 36 110 181 103 188 -2 2 -22 -6 -45 -18 -37 -19 -180 -41 -180 -28 0
10 118 284 198 458 169 372 414 865 612 1233 56 104 69 121 101 134 172 68
302 191 387 365 44 91 73 158 68 158 -2 0 -23 -11 -48 -25 -46 -25 -166 -61
-175 -51 -6 6 102 194 285 496 502 824 1045 1616 1608 2340 l182 235 259 192
258 192 33 153 c18 84 35 164 39 177 9 35 -739 -467 -816 -547 -30 -32 -132
-147 -226 -257 -415 -485 -837 -1022 -1229 -1565 -82 -113 -152 -209 -156
-213 -4 -5 -5 66 -2 157 5 169 -8 338 -34 454 -18 82 -18 117 3 178 22 65 142
186 233 234 82 43 59 50 -47 15 -84 -28 -191 -83 -237 -122 -16 -13 -30 -23
-31 -21 -2 2 -17 36 -33 75 -74 173 -198 349 -356 501 -59 56 -111 102 -116
102 -5 0 -2 19 6 43 34 94 -9 185 -119 248 -39 23 -96 56 -126 73 -80 47 -145
123 -172 203 -46 137 -23 322 61 472 37 67 38 82 4 50 -40 -37 -132 -180 -160
-249 -30 -74 -53 -171 -55 -233 -1 -26 -3 -47 -5 -47 -1 0 -25 37 -52 83 -260
437 -416 916 -484 1492 -19 162 -16 534 5 670 73 468 251 793 537 977 147 94
301 138 489 139 271 0 503 -98 682 -289 162 -174 240 -375 240 -617 0 -340
-164 -623 -440 -761 -180 -90 -396 -98 -574 -22 l-52 22 45 8 c154 26 195 228
60 299 -46 25 -116 24 -158 -1 -60 -37 -94 -120 -73 -182 10 -31 7 -30 -44 24
-138 147 -213 364 -186 542 22 151 86 274 194 372 109 98 230 144 383 144 112
0 195 -23 280 -78 75 -49 119 -99 158 -182 27 -58 31 -75 31 -160 0 -77 -4
-103 -21 -134 -28 -55 -80 -94 -137 -105 l-47 -8 0 66 c0 248 -299 364 -464
181 -52 -58 -69 -103 -69 -180 0 -77 17 -122 69 -180 76 -84 148 -101 322 -75
181 26 273 66 349 148 52 56 77 106 93 180 30 145 -38 348 -151 453 -102 95
-224 145 -369 151 -199 9 -340 -46 -481 -186 -47 -47 -99 -111 -117 -141 -130
-232 -117 -517 35 -754 155 -240 397 -369 663 -353 117 8 191 27 295 77 230
112 400 326 472 595 23 88 26 119 26 255 0 135 -3 167 -26 253 -118 443 -505
748 -967 762 -69 2 -136 2 -150 -1z m-1830 -7615 c200 -50 423 -211 549 -397
121 -179 192 -424 190 -653 -1 -151 -9 -178 -134 -449 -131 -285 -312 -715
-400 -950 -58 -154 -75 -190 -75 -157 0 24 -62 242 -104 362 -153 448 -410
934 -682 1291 -69 90 -81 114 -36 71 91 -87 283 -89 361 -4 25 28 51 118 51
182 0 53 -35 121 -83 159 -35 28 -45 30 -130 34 -86 4 -94 2 -127 -22 -60 -44
-80 -52 -90 -35 -18 27 -23 103 -12 163 25 134 119 272 235 347 134 87 294
106 487 58z"/>
<path d="M3491 5023 c-119 -63 -110 -235 16 -289 44 -19 80 -17 127 6 108 53
121 201 24 273 -38 29 -123 34 -167 10z"/>
<path d="M3895 4789 c-82 -23 -121 -122 -76 -195 20 -32 74 -64 111 -64 36 0
91 31 112 64 14 23 18 43 15 79 -7 84 -83 139 -162 116z"/>
<path d="M3707 4430 c-191 -48 -271 -282 -146 -433 65 -79 183 -116 285 -88
96 26 180 129 191 235 11 105 -58 225 -152 267 -51 22 -129 31 -178 19z"/>
<path d="M3620 11822 c-50 -25 -80 -74 -80 -134 0 -125 115 -201 224 -148 152
73 102 300 -66 300 -24 0 -59 -8 -78 -18z"/>
<path d="M5274 11796 c-43 -19 -64 -53 -64 -102 0 -94 112 -141 178 -74 35 35
45 74 27 115 -25 60 -84 86 -141 61z"/>
<path d="M4195 11270 c-107 -53 -120 -203 -23 -272 45 -32 143 -33 185 -2 98
73 87 221 -21 273 -53 26 -90 26 -141 1z"/>
<path d="M3830 11251 c-37 -37 -46 -73 -29 -118 10 -25 26 -42 52 -56 34 -17
44 -18 78 -8 47 14 79 59 79 110 0 24 -9 42 -34 67 -46 46 -104 48 -146 5z"/>
<path d="M5935 11268 c-53 -29 -73 -108 -39 -157 22 -31 75 -52 113 -45 33 7
76 48 84 82 9 36 -11 90 -42 112 -32 22 -84 26 -116 8z"/>
<path d="M8792 10924 c-153 -78 -100 -304 71 -304 111 0 187 119 143 224 -32
76 -141 117 -214 80z"/>
<path d="M4068 10814 c-30 -16 -58 -61 -58 -94 0 -53 57 -110 110 -110 53 0
110 57 110 110 0 34 -28 78 -60 95 -36 19 -67 19 -102 -1z"/>
<path d="M8374 10472 c-71 -57 -52 -168 33 -191 60 -17 122 20 137 81 8 35
-14 90 -45 112 -31 21 -98 20 -125 -2z"/>
<path d="M9380 10463 c-62 -20 -96 -71 -86 -128 10 -53 50 -85 106 -85 134 0
147 182 15 213 -11 3 -27 3 -35 0z"/>
<path d="M5592 10420 c-202 -102 -203 -378 -1 -479 136 -68 288 -16 362 123
31 58 31 174 0 232 -49 92 -129 144 -233 151 -58 4 -72 1 -128 -27z"/>
<path d="M8857 10369 c-83 -20 -146 -74 -185 -158 -21 -45 -24 -64 -20 -120
11 -148 119 -251 263 -250 108 0 184 43 235 132 97 170 -10 380 -205 400 -27
3 -67 1 -88 -4z"/>
<path d="M3975 10263 c-32 -8 -84 -51 -100 -83 -20 -38 -19 -103 1 -147 65
-136 281 -97 301 55 14 105 -98 203 -202 175z"/>
<path d="M6178 10243 c-73 -46 -68 -152 9 -188 75 -36 153 15 153 98 -1 86
-89 135 -162 90z"/>
<path d="M8324 10032 c-80 -38 -113 -133 -72 -212 30 -58 78 -90 135 -90 95 0
154 55 161 149 3 46 0 62 -20 90 -51 75 -127 98 -204 63z"/>
<path d="M9280 9923 c-36 -10 -63 -29 -76 -55 -57 -111 74 -213 168 -130 27
25 31 36 31 76 0 37 -5 53 -24 72 -26 26 -74 44 -99 37z"/>
<path d="M6003 9869 c-150 -74 -95 -299 72 -299 147 0 212 175 103 277 -50 47
-110 54 -175 22z"/>
<path d="M4165 9856 c-106 -46 -76 -206 39 -206 50 0 83 21 102 66 37 88 -54
178 -141 140z"/>
<path d="M8980 9733 c-65 -27 -102 -82 -102 -154 0 -63 30 -111 86 -138 54
-26 88 -26 142 0 107 51 119 200 22 272 -27 21 -118 33 -148 20z"/>
<path d="M5628 9704 c-31 -16 -58 -61 -58 -96 0 -38 35 -85 74 -98 49 -16 101
2 127 44 23 38 24 67 4 106 -28 54 -94 74 -147 44z"/>
<path d="M6386 9350 c-183 -73 -230 -310 -88 -443 86 -79 205 -98 303 -48 57
30 85 56 117 111 24 39 27 56 27 130 0 74 -3 91 -27 130 -14 25 -37 55 -50 67
-73 67 -192 90 -282 53z"/>
<path d="M2933 8996 c-59 -15 -85 -29 -130 -76 -53 -54 -68 -95 -68 -185 0
-92 16 -132 72 -189 82 -82 204 -102 309 -51 197 96 198 386 1 479 -66 31
-119 37 -184 22z"/>
<path d="M6963 8970 c-45 -27 -62 -84 -38 -133 16 -35 64 -67 100 -67 25 0 72
27 89 52 9 12 16 40 16 61 0 31 -7 46 -34 73 -40 40 -83 45 -133 14z"/>
<path d="M8955 8926 c-95 -42 -124 -169 -58 -247 73 -87 195 -77 261 21 20 29
23 44 20 88 -7 85 -63 142 -145 149 -28 2 -61 -3 -78 -11z"/>
<path d="M3481 8904 c-39 -32 -49 -80 -26 -127 40 -84 160 -82 195 3 29 70
-24 150 -100 150 -27 0 -48 -8 -69 -26z"/>
<path d="M8485 8922 c-49 -10 -87 -37 -110 -77 -64 -108 11 -239 134 -239 88
1 150 57 159 144 10 102 -87 194 -183 172z"/>
<path d="M3515 8576 c-94 -42 -124 -169 -58 -246 72 -86 188 -80 257 13 16 21
21 43 21 87 0 63 -16 95 -67 133 -33 25 -113 32 -153 13z"/>
<path d="M6855 8576 c-94 -42 -124 -169 -58 -246 72 -86 188 -80 257 13 16 21
21 43 21 87 0 63 -16 95 -67 133 -33 25 -113 32 -153 13z"/>
<path d="M6451 8489 c-25 -25 -31 -39 -31 -74 0 -120 160 -150 206 -38 45 106
-93 194 -175 112z"/>
<path d="M8901 8374 c-53 -38 -61 -122 -15 -168 69 -68 184 -18 184 80 0 52
-53 104 -107 104 -21 0 -49 -7 -62 -16z"/>
<path d="M4795 8243 c-87 -22 -112 -130 -44 -187 89 -75 214 22 164 127 -21
45 -74 71 -120 60z"/>
<path d="M6730 8157 c-28 -22 -50 -61 -50 -90 0 -116 156 -154 205 -50 36 75
-15 153 -98 153 -23 0 -49 -6 -57 -13z"/>
<path d="M4514 8108 c-101 -26 -104 -171 -4 -204 44 -15 76 -7 110 28 24 24
30 38 30 73 0 35 -6 49 -30 73 -33 34 -62 42 -106 30z"/>
<path d="M4312 7852 c-59 -55 -47 -143 25 -177 71 -34 153 19 153 100 0 29 -8
45 -34 71 -45 45 -99 47 -144 6z"/>
<path d="M5564 7840 c-113 -56 -112 -231 2 -285 46 -22 124 -16 162 12 32 23
72 97 72 133 0 46 -42 113 -85 137 -50 28 -98 29 -151 3z"/>
<path d="M4695 7811 c-49 -12 -83 -40 -105 -85 -24 -50 -25 -84 -6 -130 42
-102 170 -132 255 -60 77 65 63 205 -25 256 -38 21 -81 28 -119 19z"/>
<path d="M5514 7445 c-103 -52 -60 -205 57 -205 48 0 99 56 99 109 0 81 -84
132 -156 96z"/>
<path d="M3764 7354 c-60 -21 -119 -76 -150 -140 -24 -48 -26 -63 -22 -128 7
-109 51 -177 147 -227 102 -52 232 -28 311 57 54 58 73 105 74 179 0 79 -18
129 -68 183 -77 84 -188 113 -292 76z"/>
<path d="M4589 6987 c-48 -31 -82 -101 -74 -152 13 -89 94 -153 177 -142 146
20 191 221 66 297 -47 28 -125 27 -169 -3z"/>
<path d="M4224 6761 c-54 -24 -88 -79 -88 -140 1 -88 57 -150 144 -159 173
-16 243 222 86 297 -52 26 -89 26 -142 2z"/>
<path d="M4568 6410 c-102 -54 -111 -204 -16 -272 26 -18 46 -23 93 -23 99 0
157 58 157 156 0 63 -30 111 -86 138 -52 26 -100 26 -148 1z"/>
<path d="M6554 6226 c-26 -26 -34 -42 -34 -71 0 -81 82 -134 153 -100 50 23
73 75 58 126 -25 84 -115 107 -177 45z"/>
<path d="M2783 6070 c-87 -53 -103 -173 -32 -246 64 -66 151 -69 218 -8 111
100 45 274 -104 274 -32 0 -62 -7 -82 -20z"/>
<path d="M6827 6026 c-188 -70 -236 -311 -89 -449 56 -52 105 -71 182 -71 75
0 125 19 178 67 56 52 83 106 89 177 10 105 -41 202 -134 257 -55 32 -166 42
-226 19z"/>
<path d="M704 5995 c-56 -33 -78 -77 -72 -147 5 -66 28 -100 86 -129 86 -42
183 -4 217 85 54 141 -101 269 -231 191z"/>
<path d="M198 5879 c-158 -37 -243 -222 -169 -367 48 -93 126 -141 232 -142
241 -1 351 297 168 453 -66 57 -146 76 -231 56z"/>
<path d="M6384 5712 c-80 -38 -113 -133 -72 -211 30 -58 65 -83 126 -89 97 -9
163 48 170 147 3 46 0 62 -20 90 -51 75 -127 98 -204 63z"/>
<path d="M2475 5696 c-93 -30 -140 -71 -176 -150 -44 -101 -22 -224 55 -298
51 -50 100 -71 174 -76 293 -20 395 390 127 509 -56 25 -132 31 -180 15z"/>
<path d="M3017 5640 c-39 -31 -51 -85 -29 -130 52 -106 202 -72 202 46 0 87
-104 138 -173 84z"/>
<path d="M349 5239 c-131 -78 -87 -279 63 -296 57 -7 109 17 146 65 22 29 27
46 27 93 0 62 -17 94 -68 133 -40 30 -123 32 -168 5z"/>
<path d="M1066 4730 c-75 -24 -126 -114 -106 -189 35 -133 202 -168 282 -60
90 120 -33 294 -176 249z"/>
<path d="M5460 4462 c-117 -56 -134 -209 -30 -279 47 -33 93 -38 146 -18 118
45 139 203 36 280 -27 20 -123 31 -152 17z"/>
<path d="M856 4313 c-78 -20 -144 -101 -153 -187 -18 -175 160 -297 317 -216
159 82 150 316 -15 391 -38 18 -106 23 -149 12z"/>
<path d="M5531 4104 c-31 -22 -52 -75 -45 -113 17 -86 143 -113 193 -42 52 73
4 171 -83 171 -23 0 -52 -7 -65 -16z"/>
<path d="M1385 4060 c-48 -11 -82 -38 -105 -84 -25 -54 -25 -89 1 -142 27 -56
75 -86 138 -86 98 0 156 58 156 157 0 47 -5 67 -23 93 -37 51 -104 77 -167 62z"/>
<path d="M5181 3979 c-25 -25 -31 -39 -31 -74 0 -119 160 -149 206 -38 45 106
-93 194 -175 112z"/>
<path d="M5591 3469 c-58 -57 -34 -157 42 -177 61 -16 120 16 136 72 28 108
-100 184 -178 105z"/>
<path d="M1744 1670 c-35 -14 -64 -59 -64 -101 0 -79 80 -129 153 -94 81 38
82 151 2 190 -36 17 -59 18 -91 5z"/>
</g>
</svg>
